<?xml version="1.0" encoding="UTF-8" standalone="no"?>
<!DOCTYPE svg PUBLIC "-//W3C//DTD SVG 1.1//EN" "http://www.w3.org/Graphics/SVG/1.1/DTD/svg11.dtd">
<svg width="100%" height="100%" viewBox="0 0 867 307" version="1.1" xmlns="http://www.w3.org/2000/svg" xmlns:xlink="http://www.w3.org/1999/xlink" xml:space="preserve" xmlns:serif="http://www.serif.com/" style="fill-rule:evenodd;clip-rule:evenodd;stroke-linejoin:round;stroke-miterlimit:2;">
    <g transform="matrix(1,0,0,1,-106.8,-386.879)">
        <g transform="matrix(1,0,0,1,0,-15)">
            <g transform="matrix(1,0,0,1,0,15)">
                <path d="M228.691,633.599C240.987,633.481 252.44,630.554 263.05,624.819C273.885,618.962 282.67,610.69 289.405,600.001C296.14,589.313 299.507,576.648 299.507,562.006L299.507,413.673C299.507,406.059 301.704,399.69 306.096,394.565C310.489,389.441 316.492,386.879 324.105,386.879C331.719,386.879 337.868,389.441 342.553,394.565C347.239,399.69 349.581,406.059 349.581,413.673L349.581,562.006C349.581,586.311 344.384,607.834 333.988,626.576C323.593,645.317 309.317,659.958 291.162,670.5C273.159,680.953 252.276,686.224 228.513,686.312L228.471,686.313L228.191,686.313L227.91,686.313L227.868,686.312C204.105,686.224 183.223,680.953 165.22,670.5C147.064,659.958 132.789,645.317 122.393,626.576C111.998,607.834 106.8,586.311 106.8,562.006L106.8,413.673C106.8,406.059 109.143,399.69 113.828,394.565C118.513,389.441 124.663,386.879 132.276,386.879C139.89,386.879 145.893,389.441 150.285,394.565C154.678,399.69 156.874,406.059 156.874,413.673L156.874,562.006C156.874,576.648 160.242,589.313 166.977,600.001C173.712,610.69 182.497,618.962 193.331,624.819C203.942,630.554 215.395,633.481 227.691,633.599L227.691,633.597L227.821,633.601L227.881,633.601L228.191,633.602L228.5,633.601L228.56,633.601L228.691,633.597L228.691,633.599Z" style="fill:white;"/>
            </g>
            <g transform="matrix(4.06953,0,0,1.44728,-698.605,-114.106)">
                <path d="M333.514,550.552C333.514,555.544 332.925,559.72 331.748,563.08C330.571,566.44 329.083,568.12 327.283,568.12C325.483,568.12 323.995,566.44 322.818,563.08C321.641,559.72 321.053,555.544 321.053,550.552L321.053,431.608C321.053,426.616 321.641,422.44 322.818,419.08C323.995,415.72 325.483,414.04 327.283,414.04C329.083,414.04 330.571,415.72 331.748,419.08C332.925,422.44 333.514,426.616 333.514,431.608L333.514,550.552Z" style="fill:white;fill-rule:nonzero;"/>
            </g>
            <g transform="matrix(1.52516,0,0,1.52516,-218.974,-141.078)">
                <circle cx="558.144" cy="373.28" r="17.28" style="fill:white;"/>
            </g>
            <g transform="matrix(4.23003,0,0,1.52516,-747.193,-171.969)">
                <path d="M378.788,478.264C379.065,478.264 379.295,478.456 379.48,478.84C379.665,479.224 379.757,479.843 379.757,480.696C379.757,481.037 379.726,481.464 379.665,481.976L369.096,566.456C369.034,566.968 368.919,567.373 368.75,567.672C368.581,567.971 368.419,568.12 368.265,568.12C368.05,568.12 367.858,568.013 367.688,567.8C367.519,567.587 367.404,567.181 367.342,566.584L358.712,506.168L359.081,506.168L350.451,566.584C350.359,567.181 350.228,567.587 350.059,567.8C349.889,568.013 349.697,568.12 349.482,568.12C349.328,568.12 349.174,567.971 349.02,567.672C348.866,567.373 348.759,566.968 348.697,566.456L338.129,481.976C338.067,481.464 338.036,481.08 338.036,480.824C338.036,479.971 338.152,479.331 338.382,478.904C338.613,478.477 338.836,478.264 339.052,478.264C339.236,478.264 339.413,478.413 339.582,478.712C339.752,479.011 339.867,479.416 339.929,479.928L349.851,559.416L349.528,559.544L358.02,500.024C358.081,499.512 358.189,499.107 358.343,498.808C358.497,498.509 358.681,498.36 358.897,498.36C359.081,498.36 359.258,498.509 359.427,498.808C359.597,499.107 359.712,499.512 359.773,500.024L368.358,559.928L367.942,560.056L377.865,479.928C377.926,479.416 378.034,479.011 378.188,478.712C378.342,478.413 378.542,478.264 378.788,478.264Z" style="fill:white;fill-rule:nonzero;"/>
            </g>
            <g transform="matrix(4.23003,0,0,1.52516,-747.193,-171.969)">
                <path d="M397.987,478.52C399.74,478.52 401.271,479.544 402.579,481.592C403.886,483.64 404.901,486.499 405.624,490.168C406.348,493.837 406.709,498.104 406.709,502.968C406.709,507.747 406.348,512.056 405.624,515.896C404.901,519.736 403.886,522.765 402.579,524.984C401.271,527.203 399.74,528.312 397.987,528.312L387.741,528.312L387.926,527.416L387.926,565.56C387.926,566.243 387.826,566.84 387.626,567.352C387.426,567.864 387.203,568.12 386.956,568.12C386.649,568.12 386.41,567.864 386.241,567.352C386.072,566.84 385.987,566.243 385.987,565.56L385.987,481.08C385.987,480.397 386.08,479.8 386.264,479.288C386.449,478.776 386.664,478.52 386.91,478.52L397.987,478.52ZM397.987,523.192C399.402,523.192 400.609,522.317 401.609,520.568C402.609,518.819 403.386,516.408 403.94,513.336C404.494,510.264 404.771,506.808 404.771,502.968C404.771,499.043 404.494,495.651 403.94,492.792C403.386,489.933 402.609,487.693 401.609,486.072C400.609,484.451 399.402,483.64 397.987,483.64L387.787,483.64L387.926,483L387.926,523.576L387.741,523.192L397.987,523.192Z" style="fill:white;fill-rule:nonzero;"/>
            </g>
            <g transform="matrix(1,0,0,1,0,22.3187)">
                <path d="M377.887,582.432C377.886,582.375 377.886,582.318 377.886,582.262L377.886,404.464C377.886,390.719 389.045,379.56 402.79,379.56C416.535,379.56 427.693,390.719 427.693,404.464L427.693,493.477C443.411,483.888 461.868,478.363 481.606,478.363C538.851,478.363 585.326,524.838 585.326,582.083C585.326,639.327 538.851,685.803 481.606,685.803C424.476,685.803 378.072,639.513 377.887,582.432ZM481.606,528.51C511.174,528.51 535.179,552.515 535.179,582.083C535.179,611.65 511.174,635.655 481.606,635.655C452.039,635.655 428.034,611.65 428.034,582.083C428.034,552.515 452.039,528.51 481.606,528.51Z" style="fill:white;"/>
            </g>
        </g>
    </g>
</svg>
